<?xml version="1.0" standalone="no"?>
<!DOCTYPE svg PUBLIC "-//W3C//DTD SVG 1.1//EN" "http://www.w3.org/Graphics/SVG/1.1/DTD/svg11.dtd">
<svg version="1.1" width="1200" height="710" onload="init(evt)" viewBox="0 0 1200 710" xmlns="http://www.w3.org/2000/svg" xmlns:xlink="http://www.w3.org/1999/xlink">
<!-- Flame graph stack visualization. See https://github.com/brendangregg/FlameGraph for latest version, and http://www.brendangregg.com/flamegraphs.html for examples. -->
<!-- NOTES:  -->
<defs>
	<linearGradient id="background" y1="0" y2="1" x1="0" x2="0" >
		<stop stop-color="#eeeeee" offset="5%" />
		<stop stop-color="#eeeeb0" offset="95%" />
	</linearGradient>
</defs>
<style type="text/css">
	text { font-family:Verdana; font-size:12px; fill:rgb(0,0,0); }
	#search, #ignorecase { opacity:0.1; cursor:pointer; }
	#search:hover, #search.show, #ignorecase:hover, #ignorecase.show { opacity:1; }
	#subtitle { text-anchor:middle; font-color:rgb(160,160,160); }
	#title { text-anchor:middle; font-size:17px}
	#unzoom { cursor:pointer; }
	#frames > *:hover { stroke:black; stroke-width:0.5; cursor:pointer; }
	.hide { display:none; }
	.parent { opacity:0.5; }
</style>
<script type="text/ecmascript">
<![CDATA[
	"use strict";
	var details, searchbtn, unzoombtn, matchedtxt, svg, searching, currentSearchTerm, ignorecase, ignorecaseBtn;
	function init(evt) {
		details = document.getElementById("details").firstChild;
		searchbtn = document.getElementById("search");
		ignorecaseBtn = document.getElementById("ignorecase");
		unzoombtn = document.getElementById("unzoom");
		matchedtxt = document.getElementById("matched");
		svg = document.getElementsByTagName("svg")[0];
		searching = 0;
		currentSearchTerm = null;

		// use GET parameters to restore a flamegraphs state.
		var params = get_params();
		if (params.x && params.y)
			zoom(find_group(document.querySelector('[x="' + params.x + '"][y="' + params.y + '"]')));
                if (params.s) search(params.s);
	}

	// event listeners
	window.addEventListener("click", function(e) {
		var target = find_group(e.target);
		if (target) {
			if (target.nodeName == "a") {
				if (e.ctrlKey === false) return;
				e.preventDefault();
			}
			if (target.classList.contains("parent")) unzoom();
			zoom(target);
			if (!document.querySelector('.parent')) {
				clearzoom();
				return;
			}

			// set parameters for zoom state
			var el = target.querySelector("rect");
			if (el && el.attributes && el.attributes.y && el.attributes._orig_x) {
				var params = get_params()
				params.x = el.attributes._orig_x.value;
				params.y = el.attributes.y.value;
				history.replaceState(null, null, parse_params(params));
			}
		}
		else if (e.target.id == "unzoom") clearzoom();
		else if (e.target.id == "search") search_prompt();
		else if (e.target.id == "ignorecase") toggle_ignorecase();
	}, false)

	// mouse-over for info
	// show
	window.addEventListener("mouseover", function(e) {
		var target = find_group(e.target);
		if (target) details.nodeValue = "Function: " + g_to_text(target);
	}, false)

	// clear
	window.addEventListener("mouseout", function(e) {
		var target = find_group(e.target);
		if (target) details.nodeValue = ' ';
	}, false)

	// ctrl-F for search
	// ctrl-I to toggle case-sensitive search
	window.addEventListener("keydown",function (e) {
		if (e.keyCode === 114 || (e.ctrlKey && e.keyCode === 70)) {
			e.preventDefault();
			search_prompt();
		}
		else if (e.ctrlKey && e.keyCode === 73) {
			e.preventDefault();
			toggle_ignorecase();
		}
	}, false)

	// functions
	function get_params() {
		var params = {};
		var paramsarr = window.location.search.substr(1).split('&');
		for (var i = 0; i < paramsarr.length; ++i) {
			var tmp = paramsarr[i].split("=");
			if (!tmp[0] || !tmp[1]) continue;
			params[tmp[0]]  = decodeURIComponent(tmp[1]);
		}
		return params;
	}
	function parse_params(params) {
		var uri = "?";
		for (var key in params) {
			uri += key + '=' + encodeURIComponent(params[key]) + '&';
		}
		if (uri.slice(-1) == "&")
			uri = uri.substring(0, uri.length - 1);
		if (uri == '?')
			uri = window.location.href.split('?')[0];
		return uri;
	}
	function find_child(node, selector) {
		var children = node.querySelectorAll(selector);
		if (children.length) return children[0];
	}
	function find_group(node) {
		var parent = node.parentElement;
		if (!parent) return;
		if (parent.id == "frames") return node;
		return find_group(parent);
	}
	function orig_save(e, attr, val) {
		if (e.attributes["_orig_" + attr] != undefined) return;
		if (e.attributes[attr] == undefined) return;
		if (val == undefined) val = e.attributes[attr].value;
		e.setAttribute("_orig_" + attr, val);
	}
	function orig_load(e, attr) {
		if (e.attributes["_orig_"+attr] == undefined) return;
		e.attributes[attr].value = e.attributes["_orig_" + attr].value;
		e.removeAttribute("_orig_"+attr);
	}
	function g_to_text(e) {
		var text = find_child(e, "title").firstChild.nodeValue;
		return (text)
	}
	function g_to_func(e) {
		var func = g_to_text(e);
		// if there's any manipulation we want to do to the function
		// name before it's searched, do it here before returning.
		return (func);
	}
	function update_text(e) {
		var r = find_child(e, "rect");
		var t = find_child(e, "text");
		var w = parseFloat(r.attributes.width.value) -3;
		var txt = find_child(e, "title").textContent.replace(/\([^(]*\)$/,"");
		t.attributes.x.value = parseFloat(r.attributes.x.value) + 3;

		// Smaller than this size won't fit anything
		if (w < 2 * 12 * 0.59) {
			t.textContent = "";
			return;
		}

		t.textContent = txt;
		// Fit in full text width
		if (/^ *$/.test(txt) || t.getSubStringLength(0, txt.length) < w)
			return;

		for (var x = txt.length - 2; x > 0; x--) {
			if (t.getSubStringLength(0, x + 2) <= w) {
				t.textContent = txt.substring(0, x) + "..";
				return;
			}
		}
		t.textContent = "";
	}

	// zoom
	function zoom_reset(e) {
		if (e.attributes != undefined) {
			orig_load(e, "x");
			orig_load(e, "width");
		}
		if (e.childNodes == undefined) return;
		for (var i = 0, c = e.childNodes; i < c.length; i++) {
			zoom_reset(c[i]);
		}
	}
	function zoom_child(e, x, ratio) {
		if (e.attributes != undefined) {
			if (e.attributes.x != undefined) {
				orig_save(e, "x");
				e.attributes.x.value = (parseFloat(e.attributes.x.value) - x - 10) * ratio + 10;
				if (e.tagName == "text")
					e.attributes.x.value = find_child(e.parentNode, "rect[x]").attributes.x.value + 3;
			}
			if (e.attributes.width != undefined) {
				orig_save(e, "width");
				e.attributes.width.value = parseFloat(e.attributes.width.value) * ratio;
			}
		}

		if (e.childNodes == undefined) return;
		for (var i = 0, c = e.childNodes; i < c.length; i++) {
			zoom_child(c[i], x - 10, ratio);
		}
	}
	function zoom_parent(e) {
		if (e.attributes) {
			if (e.attributes.x != undefined) {
				orig_save(e, "x");
				e.attributes.x.value = 10;
			}
			if (e.attributes.width != undefined) {
				orig_save(e, "width");
				e.attributes.width.value = parseInt(svg.width.baseVal.value) - (10 * 2);
			}
		}
		if (e.childNodes == undefined) return;
		for (var i = 0, c = e.childNodes; i < c.length; i++) {
			zoom_parent(c[i]);
		}
	}
	function zoom(node) {
		var attr = find_child(node, "rect").attributes;
		var width = parseFloat(attr.width.value);
		var xmin = parseFloat(attr.x.value);
		var xmax = parseFloat(xmin + width);
		var ymin = parseFloat(attr.y.value);
		var ratio = (svg.width.baseVal.value - 2 * 10) / width;

		// XXX: Workaround for JavaScript float issues (fix me)
		var fudge = 0.0001;

		unzoombtn.classList.remove("hide");

		var el = document.getElementById("frames").children;
		for (var i = 0; i < el.length; i++) {
			var e = el[i];
			var a = find_child(e, "rect").attributes;
			var ex = parseFloat(a.x.value);
			var ew = parseFloat(a.width.value);
			var upstack;
			// Is it an ancestor
			if (0 == 0) {
				upstack = parseFloat(a.y.value) > ymin;
			} else {
				upstack = parseFloat(a.y.value) < ymin;
			}
			if (upstack) {
				// Direct ancestor
				if (ex <= xmin && (ex+ew+fudge) >= xmax) {
					e.classList.add("parent");
					zoom_parent(e);
					update_text(e);
				}
				// not in current path
				else
					e.classList.add("hide");
			}
			// Children maybe
			else {
				// no common path
				if (ex < xmin || ex + fudge >= xmax) {
					e.classList.add("hide");
				}
				else {
					zoom_child(e, xmin, ratio);
					update_text(e);
				}
			}
		}
		search();
	}
	function unzoom() {
		unzoombtn.classList.add("hide");
		var el = document.getElementById("frames").children;
		for(var i = 0; i < el.length; i++) {
			el[i].classList.remove("parent");
			el[i].classList.remove("hide");
			zoom_reset(el[i]);
			update_text(el[i]);
		}
		search();
	}
	function clearzoom() {
		unzoom();

		// remove zoom state
		var params = get_params();
		if (params.x) delete params.x;
		if (params.y) delete params.y;
		history.replaceState(null, null, parse_params(params));
	}

	// search
	function toggle_ignorecase() {
		ignorecase = !ignorecase;
		if (ignorecase) {
			ignorecaseBtn.classList.add("show");
		} else {
			ignorecaseBtn.classList.remove("show");
		}
		reset_search();
		search();
	}
	function reset_search() {
		var el = document.querySelectorAll("#frames rect");
		for (var i = 0; i < el.length; i++) {
			orig_load(el[i], "fill")
		}
		var params = get_params();
		delete params.s;
		history.replaceState(null, null, parse_params(params));
	}
	function search_prompt() {
		if (!searching) {
			var term = prompt("Enter a search term (regexp " +
			    "allowed, eg: ^ext4_)"
			    + (ignorecase ? ", ignoring case" : "")
			    + "\nPress Ctrl-i to toggle case sensitivity", "");
			if (term != null) search(term);
		} else {
			reset_search();
			searching = 0;
			currentSearchTerm = null;
			searchbtn.classList.remove("show");
			searchbtn.firstChild.nodeValue = "Search"
			matchedtxt.classList.add("hide");
			matchedtxt.firstChild.nodeValue = ""
		}
	}
	function search(term) {
		if (term) currentSearchTerm = term;

		var re = new RegExp(currentSearchTerm, ignorecase ? 'i' : '');
		var el = document.getElementById("frames").children;
		var matches = new Object();
		var maxwidth = 0;
		for (var i = 0; i < el.length; i++) {
			var e = el[i];
			var func = g_to_func(e);
			var rect = find_child(e, "rect");
			if (func == null || rect == null)
				continue;

			// Save max width. Only works as we have a root frame
			var w = parseFloat(rect.attributes.width.value);
			if (w > maxwidth)
				maxwidth = w;

			if (func.match(re)) {
				// highlight
				var x = parseFloat(rect.attributes.x.value);
				orig_save(rect, "fill");
				rect.attributes.fill.value = "rgb(230,0,230)";

				// remember matches
				if (matches[x] == undefined) {
					matches[x] = w;
				} else {
					if (w > matches[x]) {
						// overwrite with parent
						matches[x] = w;
					}
				}
				searching = 1;
			}
		}
		if (!searching)
			return;
		var params = get_params();
		params.s = currentSearchTerm;
		history.replaceState(null, null, parse_params(params));

		searchbtn.classList.add("show");
		searchbtn.firstChild.nodeValue = "Reset Search";

		// calculate percent matched, excluding vertical overlap
		var count = 0;
		var lastx = -1;
		var lastw = 0;
		var keys = Array();
		for (k in matches) {
			if (matches.hasOwnProperty(k))
				keys.push(k);
		}
		// sort the matched frames by their x location
		// ascending, then width descending
		keys.sort(function(a, b){
			return a - b;
		});
		// Step through frames saving only the biggest bottom-up frames
		// thanks to the sort order. This relies on the tree property
		// where children are always smaller than their parents.
		var fudge = 0.0001;	// JavaScript floating point
		for (var k in keys) {
			var x = parseFloat(keys[k]);
			var w = matches[keys[k]];
			if (x >= lastx + lastw - fudge) {
				count += w;
				lastx = x;
				lastw = w;
			}
		}
		// display matched percent
		matchedtxt.classList.remove("hide");
		var pct = 100 * count / maxwidth;
		if (pct != 100) pct = pct.toFixed(1)
		matchedtxt.firstChild.nodeValue = "Matched: " + pct + "%";
	}
]]>
</script>
<rect x="0.0" y="0" width="1200.0" height="710.0" fill="url(#background)"  />
<text id="title" x="600.00" y="24" >Flame Graph</text>
<text id="details" x="10.00" y="693" > </text>
<text id="unzoom" x="10.00" y="24" class="hide">Reset Zoom</text>
<text id="search" x="1090.00" y="24" >Search</text>
<text id="ignorecase" x="1174.00" y="24" >ic</text>
<text id="matched" x="1090.00" y="693" > </text>
<g id="frames">
<g >
<title>__x64_sys_futex (1 samples, 1.72%)</title><rect x="1149.3" y="437" width="20.4" height="15.0" fill="rgb(237,120,50)" rx="2" ry="2" />
<text  x="1152.31" y="447.5" ></text>
</g>
<g >
<title>schedule (2 samples, 3.45%)</title><rect x="884.8" y="293" width="40.7" height="15.0" fill="rgb(216,144,26)" rx="2" ry="2" />
<text  x="887.83" y="303.5" >sch..</text>
</g>
<g >
<title>[kube-apiserver] (1 samples, 1.72%)</title><rect x="1169.7" y="533" width="20.3" height="15.0" fill="rgb(234,117,26)" rx="2" ry="2" />
<text  x="1172.66" y="543.5" ></text>
</g>
<g >
<title>schedule (3 samples, 5.17%)</title><rect x="1027.2" y="309" width="61.1" height="15.0" fill="rgb(239,28,26)" rx="2" ry="2" />
<text  x="1030.24" y="319.5" >schedule</text>
</g>
<g >
<title>[kube-apiserver] (1 samples, 1.72%)</title><rect x="1129.0" y="373" width="20.3" height="15.0" fill="rgb(251,27,37)" rx="2" ry="2" />
<text  x="1131.97" y="383.5" ></text>
</g>
<g >
<title>futex_wake (2 samples, 3.45%)</title><rect x="783.1" y="341" width="40.7" height="15.0" fill="rgb(219,132,19)" rx="2" ry="2" />
<text  x="786.10" y="351.5" >fut..</text>
</g>
<g >
<title>[kube-apiserver] (1 samples, 1.72%)</title><rect x="1129.0" y="341" width="20.3" height="15.0" fill="rgb(236,125,41)" rx="2" ry="2" />
<text  x="1131.97" y="351.5" ></text>
</g>
<g >
<title>do_nanosleep (1 samples, 1.72%)</title><rect x="1108.6" y="453" width="20.4" height="15.0" fill="rgb(215,134,47)" rx="2" ry="2" />
<text  x="1111.62" y="463.5" ></text>
</g>
<g >
<title>[kube-apiserver] (1 samples, 1.72%)</title><rect x="742.4" y="37" width="20.4" height="15.0" fill="rgb(239,189,24)" rx="2" ry="2" />
<text  x="745.41" y="47.5" ></text>
</g>
<g >
<title>[kube-apiserver] (1 samples, 1.72%)</title><rect x="1129.0" y="357" width="20.3" height="15.0" fill="rgb(237,88,3)" rx="2" ry="2" />
<text  x="1131.97" y="367.5" ></text>
</g>
<g >
<title>do_syscall_64 (1 samples, 1.72%)</title><rect x="1169.7" y="437" width="20.3" height="15.0" fill="rgb(220,160,51)" rx="2" ry="2" />
<text  x="1172.66" y="447.5" ></text>
</g>
<g >
<title>[kube-apiserver] (1 samples, 1.72%)</title><rect x="742.4" y="53" width="20.4" height="15.0" fill="rgb(244,27,23)" rx="2" ry="2" />
<text  x="745.41" y="63.5" ></text>
</g>
<g >
<title>hrtimer_nanosleep (1 samples, 1.72%)</title><rect x="1108.6" y="469" width="20.4" height="15.0" fill="rgb(210,227,20)" rx="2" ry="2" />
<text  x="1111.62" y="479.5" ></text>
</g>
<g >
<title>schedule_hrtimeout_range (2 samples, 3.45%)</title><rect x="884.8" y="325" width="40.7" height="15.0" fill="rgb(248,24,25)" rx="2" ry="2" />
<text  x="887.83" y="335.5" >sch..</text>
</g>
<g >
<title>[kube-apiserver] (8 samples, 13.79%)</title><rect x="620.3" y="405" width="162.8" height="15.0" fill="rgb(223,35,20)" rx="2" ry="2" />
<text  x="623.34" y="415.5" >[kube-apiserver]</text>
</g>
<g >
<title>finish_task_switch.isra.0 (2 samples, 3.45%)</title><rect x="925.5" y="277" width="40.7" height="15.0" fill="rgb(207,100,0)" rx="2" ry="2" />
<text  x="928.52" y="287.5" >fin..</text>
</g>
<g >
<title>[kube-apiserver] (40 samples, 68.97%)</title><rect x="294.8" y="517" width="813.8" height="15.0" fill="rgb(213,164,17)" rx="2" ry="2" />
<text  x="297.83" y="527.5" >[kube-apiserver]</text>
</g>
<g >
<title>[kube-apiserver] (1 samples, 1.72%)</title><rect x="1169.7" y="549" width="20.3" height="15.0" fill="rgb(218,143,46)" rx="2" ry="2" />
<text  x="1172.66" y="559.5" ></text>
</g>
<g >
<title>[kube-apiserver] (1 samples, 1.72%)</title><rect x="1129.0" y="405" width="20.3" height="15.0" fill="rgb(206,28,2)" rx="2" ry="2" />
<text  x="1131.97" y="415.5" ></text>
</g>
<g >
<title>entry_SYSCALL_64_after_hwframe (10 samples, 17.24%)</title><rect x="823.8" y="437" width="203.4" height="15.0" fill="rgb(224,83,30)" rx="2" ry="2" />
<text  x="826.79" y="447.5" >entry_SYSCALL_64_after_hwf..</text>
</g>
<g >
<title>__x64_sys_futex (1 samples, 1.72%)</title><rect x="762.8" y="197" width="20.3" height="15.0" fill="rgb(213,151,14)" rx="2" ry="2" />
<text  x="765.76" y="207.5" ></text>
</g>
<g >
<title>do_epoll_wait (5 samples, 8.62%)</title><rect x="823.8" y="357" width="101.7" height="15.0" fill="rgb(232,113,18)" rx="2" ry="2" />
<text  x="826.79" y="367.5" >do_epoll_wait</text>
</g>
<g >
<title>x64_sys_call (1 samples, 1.72%)</title><rect x="1169.7" y="421" width="20.3" height="15.0" fill="rgb(230,46,12)" rx="2" ry="2" />
<text  x="1172.66" y="431.5" ></text>
</g>
<g >
<title>[kube-apiserver] (51 samples, 87.93%)</title><rect x="91.4" y="565" width="1037.6" height="15.0" fill="rgb(248,189,22)" rx="2" ry="2" />
<text  x="94.38" y="575.5" >[kube-apiserver]</text>
</g>
<g >
<title>[kube-apiserver] (1 samples, 1.72%)</title><rect x="742.4" y="133" width="20.4" height="15.0" fill="rgb(237,0,3)" rx="2" ry="2" />
<text  x="745.41" y="143.5" ></text>
</g>
<g >
<title>_raw_spin_unlock_irqrestore (2 samples, 3.45%)</title><rect x="986.6" y="325" width="40.6" height="15.0" fill="rgb(213,125,42)" rx="2" ry="2" />
<text  x="989.55" y="335.5" >_ra..</text>
</g>
<g >
<title>[kube-apiserver] (5 samples, 8.62%)</title><rect x="681.4" y="357" width="101.7" height="15.0" fill="rgb(236,103,28)" rx="2" ry="2" />
<text  x="684.38" y="367.5" >[kube-apiser..</text>
</g>
<g >
<title>finish_task_switch.isra.0 (1 samples, 1.72%)</title><rect x="1169.7" y="293" width="20.3" height="15.0" fill="rgb(228,139,41)" rx="2" ry="2" />
<text  x="1172.66" y="303.5" ></text>
</g>
<g >
<title>[kube-apiserver] (4 samples, 6.90%)</title><rect x="701.7" y="341" width="81.4" height="15.0" fill="rgb(214,79,39)" rx="2" ry="2" />
<text  x="704.72" y="351.5" >[kube-api..</text>
</g>
<g >
<title>[kube-apiserver] (1 samples, 1.72%)</title><rect x="1129.0" y="453" width="20.3" height="15.0" fill="rgb(228,168,7)" rx="2" ry="2" />
<text  x="1131.97" y="463.5" ></text>
</g>
<g >
<title>x64_sys_call (4 samples, 6.90%)</title><rect x="1027.2" y="421" width="81.4" height="15.0" fill="rgb(249,9,11)" rx="2" ry="2" />
<text  x="1030.24" y="431.5" >x64_sys_c..</text>
</g>
<g >
<title>[kube-apiserver] (1 samples, 1.72%)</title><rect x="1129.0" y="581" width="20.3" height="15.0" fill="rgb(253,153,27)" rx="2" ry="2" />
<text  x="1131.97" y="591.5" ></text>
</g>
<g >
<title>do_futex (2 samples, 3.45%)</title><rect x="783.1" y="357" width="40.7" height="15.0" fill="rgb(251,195,34)" rx="2" ry="2" />
<text  x="786.10" y="367.5" >do_..</text>
</g>
<g >
<title>[kube-apiserver] (27 samples, 46.55%)</title><rect x="477.9" y="453" width="549.3" height="15.0" fill="rgb(213,189,41)" rx="2" ry="2" />
<text  x="480.93" y="463.5" >[kube-apiserver]</text>
</g>
<g >
<title>[kube-apiserver] (1 samples, 1.72%)</title><rect x="742.4" y="85" width="20.4" height="15.0" fill="rgb(230,215,40)" rx="2" ry="2" />
<text  x="745.41" y="95.5" ></text>
</g>
<g >
<title>x64_sys_call (1 samples, 1.72%)</title><rect x="762.8" y="213" width="20.3" height="15.0" fill="rgb(231,4,40)" rx="2" ry="2" />
<text  x="765.76" y="223.5" ></text>
</g>
<g >
<title>[kube-apiserver] (6 samples, 10.34%)</title><rect x="661.0" y="373" width="122.1" height="15.0" fill="rgb(238,115,31)" rx="2" ry="2" />
<text  x="664.03" y="383.5" >[kube-apiserver]</text>
</g>
<g >
<title>[kube-apiserver] (55 samples, 94.83%)</title><rect x="10.0" y="613" width="1119.0" height="15.0" fill="rgb(225,167,19)" rx="2" ry="2" />
<text  x="13.00" y="623.5" >[kube-apiserver]</text>
</g>
<g >
<title>[kube-apiserver] (9 samples, 15.52%)</title><rect x="600.0" y="421" width="183.1" height="15.0" fill="rgb(226,42,39)" rx="2" ry="2" />
<text  x="603.00" y="431.5" >[kube-apiserver]</text>
</g>
<g >
<title>__futex_wait (1 samples, 1.72%)</title><rect x="1149.3" y="389" width="20.4" height="15.0" fill="rgb(253,45,2)" rx="2" ry="2" />
<text  x="1152.31" y="399.5" ></text>
</g>
<g >
<title>schedule (2 samples, 3.45%)</title><rect x="925.5" y="309" width="40.7" height="15.0" fill="rgb(225,93,21)" rx="2" ry="2" />
<text  x="928.52" y="319.5" >sch..</text>
</g>
<g >
<title>schedule (1 samples, 1.72%)</title><rect x="1149.3" y="357" width="20.4" height="15.0" fill="rgb(230,36,4)" rx="2" ry="2" />
<text  x="1152.31" y="367.5" ></text>
</g>
<g >
<title>[kube-apiserver] (1 samples, 1.72%)</title><rect x="1129.0" y="549" width="20.3" height="15.0" fill="rgb(229,157,39)" rx="2" ry="2" />
<text  x="1131.97" y="559.5" ></text>
</g>
<g >
<title>all (58 samples, 100%)</title><rect x="10.0" y="661" width="1180.0" height="15.0" fill="rgb(242,33,45)" rx="2" ry="2" />
<text  x="13.00" y="671.5" ></text>
</g>
<g >
<title>entry_SYSCALL_64_after_hwframe (1 samples, 1.72%)</title><rect x="1169.7" y="453" width="20.3" height="15.0" fill="rgb(248,179,42)" rx="2" ry="2" />
<text  x="1172.66" y="463.5" ></text>
</g>
<g >
<title>[kube-apiserver] (3 samples, 5.17%)</title><rect x="722.1" y="325" width="61.0" height="15.0" fill="rgb(213,181,43)" rx="2" ry="2" />
<text  x="725.07" y="335.5" >[kube-..</text>
</g>
<g >
<title>[kube-apiserver] (1 samples, 1.72%)</title><rect x="1149.3" y="517" width="20.4" height="15.0" fill="rgb(210,204,52)" rx="2" ry="2" />
<text  x="1152.31" y="527.5" ></text>
</g>
<g >
<title>__x64_sys_write (3 samples, 5.17%)</title><rect x="966.2" y="389" width="61.0" height="15.0" fill="rgb(237,100,11)" rx="2" ry="2" />
<text  x="969.21" y="399.5" >__x64_..</text>
</g>
<g >
<title>[kube-apiserver] (1 samples, 1.72%)</title><rect x="1169.7" y="581" width="20.3" height="15.0" fill="rgb(230,133,14)" rx="2" ry="2" />
<text  x="1172.66" y="591.5" ></text>
</g>
<g >
<title>futex_wait (2 samples, 3.45%)</title><rect x="925.5" y="357" width="40.7" height="15.0" fill="rgb(205,206,24)" rx="2" ry="2" />
<text  x="928.52" y="367.5" >fut..</text>
</g>
<g >
<title>vfs_write (3 samples, 5.17%)</title><rect x="966.2" y="357" width="61.0" height="15.0" fill="rgb(253,33,51)" rx="2" ry="2" />
<text  x="969.21" y="367.5" >vfs_wr..</text>
</g>
<g >
<title>[kube-apiserver] (1 samples, 1.72%)</title><rect x="1129.0" y="309" width="20.3" height="15.0" fill="rgb(228,83,16)" rx="2" ry="2" />
<text  x="1131.97" y="319.5" ></text>
</g>
<g >
<title>finish_task_switch.isra.0 (1 samples, 1.72%)</title><rect x="1108.6" y="405" width="20.4" height="15.0" fill="rgb(221,178,23)" rx="2" ry="2" />
<text  x="1111.62" y="415.5" ></text>
</g>
<g >
<title>do_futex (1 samples, 1.72%)</title><rect x="762.8" y="181" width="20.3" height="15.0" fill="rgb(224,38,14)" rx="2" ry="2" />
<text  x="765.76" y="191.5" ></text>
</g>
<g >
<title>do_syscall_64 (1 samples, 1.72%)</title><rect x="1108.6" y="517" width="20.4" height="15.0" fill="rgb(209,227,24)" rx="2" ry="2" />
<text  x="1111.62" y="527.5" ></text>
</g>
<g >
<title>[kube-apiserver] (1 samples, 1.72%)</title><rect x="742.4" y="229" width="20.4" height="15.0" fill="rgb(205,4,30)" rx="2" ry="2" />
<text  x="745.41" y="239.5" ></text>
</g>
<g >
<title>[kube-apiserver] (3 samples, 5.17%)</title><rect x="722.1" y="309" width="61.0" height="15.0" fill="rgb(240,156,14)" rx="2" ry="2" />
<text  x="725.07" y="319.5" >[kube-..</text>
</g>
<g >
<title>__x64_sys_futex (1 samples, 1.72%)</title><rect x="1169.7" y="405" width="20.3" height="15.0" fill="rgb(224,89,21)" rx="2" ry="2" />
<text  x="1172.66" y="415.5" ></text>
</g>
<g >
<title>_raw_spin_unlock_irqrestore (2 samples, 3.45%)</title><rect x="783.1" y="309" width="40.7" height="15.0" fill="rgb(253,24,50)" rx="2" ry="2" />
<text  x="786.10" y="319.5" >_ra..</text>
</g>
<g >
<title>do_syscall_64 (10 samples, 17.24%)</title><rect x="823.8" y="421" width="203.4" height="15.0" fill="rgb(219,97,29)" rx="2" ry="2" />
<text  x="826.79" y="431.5" >do_syscall_64</text>
</g>
<g >
<title>do_epoll_pwait.part.0 (3 samples, 5.17%)</title><rect x="1027.2" y="389" width="61.1" height="15.0" fill="rgb(205,27,45)" rx="2" ry="2" />
<text  x="1030.24" y="399.5" >do_epo..</text>
</g>
<g >
<title>[kube-apiserver] (1 samples, 1.72%)</title><rect x="742.4" y="101" width="20.4" height="15.0" fill="rgb(225,74,38)" rx="2" ry="2" />
<text  x="745.41" y="111.5" ></text>
</g>
<g >
<title>do_futex (2 samples, 3.45%)</title><rect x="925.5" y="373" width="40.7" height="15.0" fill="rgb(235,105,31)" rx="2" ry="2" />
<text  x="928.52" y="383.5" >do_..</text>
</g>
<g >
<title>[kube-apiserver] (1 samples, 1.72%)</title><rect x="1129.0" y="533" width="20.3" height="15.0" fill="rgb(244,96,20)" rx="2" ry="2" />
<text  x="1131.97" y="543.5" ></text>
</g>
<g >
<title>__schedule (2 samples, 3.45%)</title><rect x="925.5" y="293" width="40.7" height="15.0" fill="rgb(240,63,12)" rx="2" ry="2" />
<text  x="928.52" y="303.5" >__s..</text>
</g>
<g >
<title>ep_send_events (1 samples, 1.72%)</title><rect x="864.5" y="325" width="20.3" height="15.0" fill="rgb(240,212,44)" rx="2" ry="2" />
<text  x="867.48" y="335.5" ></text>
</g>
<g >
<title>[kube-apiserver] (1 samples, 1.72%)</title><rect x="1129.0" y="325" width="20.3" height="15.0" fill="rgb(248,173,51)" rx="2" ry="2" />
<text  x="1131.97" y="335.5" ></text>
</g>
<g >
<title>[kube-apiserver] (1 samples, 1.72%)</title><rect x="1129.0" y="437" width="20.3" height="15.0" fill="rgb(212,144,27)" rx="2" ry="2" />
<text  x="1131.97" y="447.5" ></text>
</g>
<g >
<title>ep_poll (3 samples, 5.17%)</title><rect x="1027.2" y="357" width="61.1" height="15.0" fill="rgb(240,180,0)" rx="2" ry="2" />
<text  x="1030.24" y="367.5" >ep_poll</text>
</g>
<g >
<title>[kube-apiserver] (1 samples, 1.72%)</title><rect x="742.4" y="117" width="20.4" height="15.0" fill="rgb(234,72,37)" rx="2" ry="2" />
<text  x="745.41" y="127.5" ></text>
</g>
<g >
<title>entry_SYSCALL_64_after_hwframe (4 samples, 6.90%)</title><rect x="1027.2" y="453" width="81.4" height="15.0" fill="rgb(214,126,3)" rx="2" ry="2" />
<text  x="1030.24" y="463.5" >entry_SYS..</text>
</g>
<g >
<title>[kube-apiserver] (1 samples, 1.72%)</title><rect x="1129.0" y="597" width="20.3" height="15.0" fill="rgb(240,227,33)" rx="2" ry="2" />
<text  x="1131.97" y="607.5" ></text>
</g>
<g >
<title>__futex_wait (2 samples, 3.45%)</title><rect x="925.5" y="341" width="40.7" height="15.0" fill="rgb(208,177,39)" rx="2" ry="2" />
<text  x="928.52" y="351.5" >__f..</text>
</g>
<g >
<title>schedule (1 samples, 1.72%)</title><rect x="1169.7" y="325" width="20.3" height="15.0" fill="rgb(229,188,1)" rx="2" ry="2" />
<text  x="1172.66" y="335.5" ></text>
</g>
<g >
<title>x64_sys_call (1 samples, 1.72%)</title><rect x="1149.3" y="453" width="20.4" height="15.0" fill="rgb(238,72,4)" rx="2" ry="2" />
<text  x="1152.31" y="463.5" ></text>
</g>
<g >
<title>[kube-apiserver] (1 samples, 1.72%)</title><rect x="1129.0" y="421" width="20.3" height="15.0" fill="rgb(249,96,10)" rx="2" ry="2" />
<text  x="1131.97" y="431.5" ></text>
</g>
<g >
<title>[kube-apiserver] (1 samples, 1.72%)</title><rect x="1149.3" y="565" width="20.4" height="15.0" fill="rgb(243,103,36)" rx="2" ry="2" />
<text  x="1152.31" y="575.5" ></text>
</g>
<g >
<title>do_syscall_64 (4 samples, 6.90%)</title><rect x="1027.2" y="437" width="81.4" height="15.0" fill="rgb(244,132,44)" rx="2" ry="2" />
<text  x="1030.24" y="447.5" >do_syscal..</text>
</g>
<g >
<title>[kube-apiserver] (12 samples, 20.69%)</title><rect x="579.7" y="437" width="244.1" height="15.0" fill="rgb(208,1,15)" rx="2" ry="2" />
<text  x="582.66" y="447.5" >[kube-apiserver]</text>
</g>
<g >
<title>[kube-apiserver] (3 samples, 5.17%)</title><rect x="722.1" y="293" width="61.0" height="15.0" fill="rgb(232,43,54)" rx="2" ry="2" />
<text  x="725.07" y="303.5" >[kube-..</text>
</g>
<g >
<title>[kube-apiserver] (1 samples, 1.72%)</title><rect x="1169.7" y="469" width="20.3" height="15.0" fill="rgb(236,92,8)" rx="2" ry="2" />
<text  x="1172.66" y="479.5" ></text>
</g>
<g >
<title>ep_poll (5 samples, 8.62%)</title><rect x="823.8" y="341" width="101.7" height="15.0" fill="rgb(243,91,50)" rx="2" ry="2" />
<text  x="826.79" y="351.5" >ep_poll</text>
</g>
<g >
<title>[kube-apiserver] (2 samples, 3.45%)</title><rect x="722.1" y="245" width="40.7" height="15.0" fill="rgb(220,15,14)" rx="2" ry="2" />
<text  x="725.07" y="255.5" >[ku..</text>
</g>
<g >
<title>do_epoll_pwait.part.0 (5 samples, 8.62%)</title><rect x="823.8" y="373" width="101.7" height="15.0" fill="rgb(234,173,15)" rx="2" ry="2" />
<text  x="826.79" y="383.5" >do_epoll_pwa..</text>
</g>
<g >
<title>[kube-apiserver] (1 samples, 1.72%)</title><rect x="1129.0" y="501" width="20.3" height="15.0" fill="rgb(230,126,10)" rx="2" ry="2" />
<text  x="1131.97" y="511.5" ></text>
</g>
<g >
<title>pipe_write (1 samples, 1.72%)</title><rect x="1088.3" y="357" width="20.3" height="15.0" fill="rgb(206,105,18)" rx="2" ry="2" />
<text  x="1091.28" y="367.5" ></text>
</g>
<g >
<title>schedule (1 samples, 1.72%)</title><rect x="1108.6" y="437" width="20.4" height="15.0" fill="rgb(244,9,4)" rx="2" ry="2" />
<text  x="1111.62" y="447.5" ></text>
</g>
<g >
<title>schedule_debug.constprop.0 (1 samples, 1.72%)</title><rect x="1067.9" y="277" width="20.4" height="15.0" fill="rgb(218,93,25)" rx="2" ry="2" />
<text  x="1070.93" y="287.5" ></text>
</g>
<g >
<title>[kube-apiserver] (33 samples, 56.90%)</title><rect x="437.2" y="469" width="671.4" height="15.0" fill="rgb(228,186,11)" rx="2" ry="2" />
<text  x="440.24" y="479.5" >[kube-apiserver]</text>
</g>
<g >
<title>futex_wait_queue (2 samples, 3.45%)</title><rect x="925.5" y="325" width="40.7" height="15.0" fill="rgb(247,174,43)" rx="2" ry="2" />
<text  x="928.52" y="335.5" >fut..</text>
</g>
<g >
<title>finish_task_switch.isra.0 (1 samples, 1.72%)</title><rect x="1149.3" y="325" width="20.4" height="15.0" fill="rgb(226,70,9)" rx="2" ry="2" />
<text  x="1152.31" y="335.5" ></text>
</g>
<g >
<title>__schedule (1 samples, 1.72%)</title><rect x="1108.6" y="421" width="20.4" height="15.0" fill="rgb(216,148,50)" rx="2" ry="2" />
<text  x="1111.62" y="431.5" ></text>
</g>
<g >
<title>__x64_sys_epoll_pwait (5 samples, 8.62%)</title><rect x="823.8" y="389" width="101.7" height="15.0" fill="rgb(224,0,30)" rx="2" ry="2" />
<text  x="826.79" y="399.5" >__x64_sys_ep..</text>
</g>
<g >
<title>wake_up_q (2 samples, 3.45%)</title><rect x="783.1" y="325" width="40.7" height="15.0" fill="rgb(241,176,42)" rx="2" ry="2" />
<text  x="786.10" y="335.5" >wak..</text>
</g>
<g >
<title>[kube-apiserver] (1 samples, 1.72%)</title><rect x="1129.0" y="613" width="20.3" height="15.0" fill="rgb(250,114,49)" rx="2" ry="2" />
<text  x="1131.97" y="623.5" ></text>
</g>
<g >
<title>futex_wake (1 samples, 1.72%)</title><rect x="762.8" y="165" width="20.3" height="15.0" fill="rgb(216,85,49)" rx="2" ry="2" />
<text  x="765.76" y="175.5" ></text>
</g>
<g >
<title>ksys_write (3 samples, 5.17%)</title><rect x="966.2" y="373" width="61.0" height="15.0" fill="rgb(205,228,53)" rx="2" ry="2" />
<text  x="969.21" y="383.5" >ksys_w..</text>
</g>
<g >
<title>[kube-apiserver] (1 samples, 1.72%)</title><rect x="1169.7" y="565" width="20.3" height="15.0" fill="rgb(218,93,16)" rx="2" ry="2" />
<text  x="1172.66" y="575.5" ></text>
</g>
<g >
<title>schedule_hrtimeout_range_clock (2 samples, 3.45%)</title><rect x="884.8" y="309" width="40.7" height="15.0" fill="rgb(217,33,46)" rx="2" ry="2" />
<text  x="887.83" y="319.5" >sch..</text>
</g>
<g >
<title>__x64_sys_epoll_pwait (3 samples, 5.17%)</title><rect x="1027.2" y="405" width="61.1" height="15.0" fill="rgb(240,120,33)" rx="2" ry="2" />
<text  x="1030.24" y="415.5" >__x64_..</text>
</g>
<g >
<title>[kube-apiserver] (1 samples, 1.72%)</title><rect x="742.4" y="181" width="20.4" height="15.0" fill="rgb(245,189,1)" rx="2" ry="2" />
<text  x="745.41" y="191.5" ></text>
</g>
<g >
<title>__x64_sys_futex (2 samples, 3.45%)</title><rect x="783.1" y="373" width="40.7" height="15.0" fill="rgb(241,219,12)" rx="2" ry="2" />
<text  x="786.10" y="383.5" >__x..</text>
</g>
<g >
<title>[kube-apiserver] (50 samples, 86.21%)</title><rect x="111.7" y="549" width="1017.3" height="15.0" fill="rgb(210,120,52)" rx="2" ry="2" />
<text  x="114.72" y="559.5" >[kube-apiserver]</text>
</g>
<g >
<title>__x64_sys_nanosleep (1 samples, 1.72%)</title><rect x="1108.6" y="485" width="20.4" height="15.0" fill="rgb(209,210,19)" rx="2" ry="2" />
<text  x="1111.62" y="495.5" ></text>
</g>
<g >
<title>wake_up_q (1 samples, 1.72%)</title><rect x="762.8" y="149" width="20.3" height="15.0" fill="rgb(239,94,38)" rx="2" ry="2" />
<text  x="765.76" y="159.5" ></text>
</g>
<g >
<title>[kube-apiserver] (43 samples, 74.14%)</title><rect x="233.8" y="533" width="874.8" height="15.0" fill="rgb(248,55,39)" rx="2" ry="2" />
<text  x="236.79" y="543.5" >[kube-apiserver]</text>
</g>
<g >
<title>[kube-apiserver] (1 samples, 1.72%)</title><rect x="742.4" y="213" width="20.4" height="15.0" fill="rgb(250,158,19)" rx="2" ry="2" />
<text  x="745.41" y="223.5" ></text>
</g>
<g >
<title>__schedule (1 samples, 1.72%)</title><rect x="1149.3" y="341" width="20.4" height="15.0" fill="rgb(227,147,32)" rx="2" ry="2" />
<text  x="1152.31" y="351.5" ></text>
</g>
<g >
<title>[kube-apiserver] (55 samples, 94.83%)</title><rect x="10.0" y="597" width="1119.0" height="15.0" fill="rgb(218,155,22)" rx="2" ry="2" />
<text  x="13.00" y="607.5" >[kube-apiserver]</text>
</g>
<g >
<title>x64_sys_call (2 samples, 3.45%)</title><rect x="783.1" y="389" width="40.7" height="15.0" fill="rgb(241,140,50)" rx="2" ry="2" />
<text  x="786.10" y="399.5" >x64..</text>
</g>
<g >
<title>entry_SYSCALL_64_after_hwframe (1 samples, 1.72%)</title><rect x="1108.6" y="533" width="20.4" height="15.0" fill="rgb(240,11,0)" rx="2" ry="2" />
<text  x="1111.62" y="543.5" ></text>
</g>
<g >
<title>ksys_write (1 samples, 1.72%)</title><rect x="1088.3" y="389" width="20.3" height="15.0" fill="rgb(209,24,0)" rx="2" ry="2" />
<text  x="1091.28" y="399.5" ></text>
</g>
<g >
<title>do_futex (1 samples, 1.72%)</title><rect x="1169.7" y="389" width="20.3" height="15.0" fill="rgb(225,7,20)" rx="2" ry="2" />
<text  x="1172.66" y="399.5" ></text>
</g>
<g >
<title>[kube-apiserver] (1 samples, 1.72%)</title><rect x="1169.7" y="485" width="20.3" height="15.0" fill="rgb(243,168,53)" rx="2" ry="2" />
<text  x="1172.66" y="495.5" ></text>
</g>
<g >
<title>finish_task_switch.isra.0 (2 samples, 3.45%)</title><rect x="884.8" y="261" width="40.7" height="15.0" fill="rgb(224,100,45)" rx="2" ry="2" />
<text  x="887.83" y="271.5" >fin..</text>
</g>
<g >
<title>[kube-apiserver] (1 samples, 1.72%)</title><rect x="742.4" y="197" width="20.4" height="15.0" fill="rgb(208,213,29)" rx="2" ry="2" />
<text  x="745.41" y="207.5" ></text>
</g>
<g >
<title>[kube-apiserver] (1 samples, 1.72%)</title><rect x="1149.3" y="581" width="20.4" height="15.0" fill="rgb(233,18,21)" rx="2" ry="2" />
<text  x="1152.31" y="591.5" ></text>
</g>
<g >
<title>x64_sys_call (1 samples, 1.72%)</title><rect x="1108.6" y="501" width="20.4" height="15.0" fill="rgb(243,109,54)" rx="2" ry="2" />
<text  x="1111.62" y="511.5" ></text>
</g>
<g >
<title>vfs_write (1 samples, 1.72%)</title><rect x="1088.3" y="373" width="20.3" height="15.0" fill="rgb(250,213,36)" rx="2" ry="2" />
<text  x="1091.28" y="383.5" ></text>
</g>
<g >
<title>pipe_write (3 samples, 5.17%)</title><rect x="966.2" y="341" width="61.0" height="15.0" fill="rgb(242,62,4)" rx="2" ry="2" />
<text  x="969.21" y="351.5" >pipe_w..</text>
</g>
<g >
<title>__schedule (2 samples, 3.45%)</title><rect x="884.8" y="277" width="40.7" height="15.0" fill="rgb(237,131,48)" rx="2" ry="2" />
<text  x="887.83" y="287.5" >__s..</text>
</g>
<g >
<title>[kube-apiserver] (1 samples, 1.72%)</title><rect x="1129.0" y="293" width="20.3" height="15.0" fill="rgb(236,163,8)" rx="2" ry="2" />
<text  x="1131.97" y="303.5" ></text>
</g>
<g >
<title>[kube-apiserver] (36 samples, 62.07%)</title><rect x="376.2" y="485" width="732.4" height="15.0" fill="rgb(254,73,1)" rx="2" ry="2" />
<text  x="379.21" y="495.5" >[kube-apiserver]</text>
</g>
<g >
<title>do_futex (1 samples, 1.72%)</title><rect x="1149.3" y="421" width="20.4" height="15.0" fill="rgb(244,169,49)" rx="2" ry="2" />
<text  x="1152.31" y="431.5" ></text>
</g>
<g >
<title>[kube-apiserver] (1 samples, 1.72%)</title><rect x="1169.7" y="517" width="20.3" height="15.0" fill="rgb(254,42,13)" rx="2" ry="2" />
<text  x="1172.66" y="527.5" ></text>
</g>
<g >
<title>do_syscall_64 (1 samples, 1.72%)</title><rect x="1149.3" y="469" width="20.4" height="15.0" fill="rgb(213,120,3)" rx="2" ry="2" />
<text  x="1152.31" y="479.5" ></text>
</g>
<g >
<title>[kube-apiserver] (1 samples, 1.72%)</title><rect x="1129.0" y="389" width="20.3" height="15.0" fill="rgb(236,153,25)" rx="2" ry="2" />
<text  x="1131.97" y="399.5" ></text>
</g>
<g >
<title>[kube-apiserver] (1 samples, 1.72%)</title><rect x="1149.3" y="501" width="20.4" height="15.0" fill="rgb(232,66,51)" rx="2" ry="2" />
<text  x="1152.31" y="511.5" ></text>
</g>
<g >
<title>[kube-apiserver] (1 samples, 1.72%)</title><rect x="742.4" y="149" width="20.4" height="15.0" fill="rgb(229,129,13)" rx="2" ry="2" />
<text  x="745.41" y="159.5" ></text>
</g>
<g >
<title>__schedule (3 samples, 5.17%)</title><rect x="1027.2" y="293" width="61.1" height="15.0" fill="rgb(206,191,29)" rx="2" ry="2" />
<text  x="1030.24" y="303.5" >__sche..</text>
</g>
<g >
<title>__futex_wait (1 samples, 1.72%)</title><rect x="1169.7" y="357" width="20.3" height="15.0" fill="rgb(231,228,27)" rx="2" ry="2" />
<text  x="1172.66" y="367.5" ></text>
</g>
<g >
<title>[kube-apiserver] (1 samples, 1.72%)</title><rect x="1149.3" y="549" width="20.4" height="15.0" fill="rgb(207,208,18)" rx="2" ry="2" />
<text  x="1152.31" y="559.5" ></text>
</g>
<g >
<title>[kube-apiserver] (3 samples, 5.17%)</title><rect x="722.1" y="261" width="61.0" height="15.0" fill="rgb(231,49,5)" rx="2" ry="2" />
<text  x="725.07" y="271.5" >[kube-..</text>
</g>
<g >
<title>entry_SYSCALL_64_after_hwframe (1 samples, 1.72%)</title><rect x="762.8" y="245" width="20.3" height="15.0" fill="rgb(252,50,16)" rx="2" ry="2" />
<text  x="765.76" y="255.5" ></text>
</g>
<g >
<title>[unknown] (3 samples, 5.17%)</title><rect x="1129.0" y="629" width="61.0" height="15.0" fill="rgb(224,37,12)" rx="2" ry="2" />
<text  x="1131.97" y="639.5" >[unkno..</text>
</g>
<g >
<title>[kube-apiserver] (1 samples, 1.72%)</title><rect x="1129.0" y="517" width="20.3" height="15.0" fill="rgb(254,183,16)" rx="2" ry="2" />
<text  x="1131.97" y="527.5" ></text>
</g>
<g >
<title>[unknown] (1 samples, 1.72%)</title><rect x="1169.7" y="597" width="20.3" height="15.0" fill="rgb(231,191,52)" rx="2" ry="2" />
<text  x="1172.66" y="607.5" ></text>
</g>
<g >
<title>entry_SYSCALL_64_after_hwframe (2 samples, 3.45%)</title><rect x="783.1" y="421" width="40.7" height="15.0" fill="rgb(238,84,29)" rx="2" ry="2" />
<text  x="786.10" y="431.5" >ent..</text>
</g>
<g >
<title>[kube-apiserver] (1 samples, 1.72%)</title><rect x="1169.7" y="501" width="20.3" height="15.0" fill="rgb(228,132,45)" rx="2" ry="2" />
<text  x="1172.66" y="511.5" ></text>
</g>
<g >
<title>do_epoll_wait (3 samples, 5.17%)</title><rect x="1027.2" y="373" width="61.1" height="15.0" fill="rgb(228,81,1)" rx="2" ry="2" />
<text  x="1030.24" y="383.5" >do_epo..</text>
</g>
<g >
<title>[kube-apiserver] (1 samples, 1.72%)</title><rect x="1129.0" y="469" width="20.3" height="15.0" fill="rgb(207,67,21)" rx="2" ry="2" />
<text  x="1131.97" y="479.5" ></text>
</g>
<g >
<title>[kube-apiserver] (3 samples, 5.17%)</title><rect x="722.1" y="277" width="61.0" height="15.0" fill="rgb(240,163,26)" rx="2" ry="2" />
<text  x="725.07" y="287.5" >[kube-..</text>
</g>
<g >
<title>do_syscall_64 (1 samples, 1.72%)</title><rect x="762.8" y="229" width="20.3" height="15.0" fill="rgb(245,168,13)" rx="2" ry="2" />
<text  x="765.76" y="239.5" ></text>
</g>
<g >
<title>[kube-apiserver] (40 samples, 68.97%)</title><rect x="294.8" y="501" width="813.8" height="15.0" fill="rgb(222,107,13)" rx="2" ry="2" />
<text  x="297.83" y="511.5" >[kube-apiserver]</text>
</g>
<g >
<title>[kube-apiserver] (1 samples, 1.72%)</title><rect x="742.4" y="69" width="20.4" height="15.0" fill="rgb(220,189,44)" rx="2" ry="2" />
<text  x="745.41" y="79.5" ></text>
</g>
<g >
<title>kube-apiserver (58 samples, 100.00%)</title><rect x="10.0" y="645" width="1180.0" height="15.0" fill="rgb(252,219,12)" rx="2" ry="2" />
<text  x="13.00" y="655.5" >kube-apiserver</text>
</g>
<g >
<title>[kube-apiserver] (1 samples, 1.72%)</title><rect x="1129.0" y="277" width="20.3" height="15.0" fill="rgb(220,22,13)" rx="2" ry="2" />
<text  x="1131.97" y="287.5" ></text>
</g>
<g >
<title>futex_wait_queue (1 samples, 1.72%)</title><rect x="1169.7" y="341" width="20.3" height="15.0" fill="rgb(211,195,29)" rx="2" ry="2" />
<text  x="1172.66" y="351.5" ></text>
</g>
<g >
<title>schedule_hrtimeout_range (3 samples, 5.17%)</title><rect x="1027.2" y="341" width="61.1" height="15.0" fill="rgb(220,218,11)" rx="2" ry="2" />
<text  x="1030.24" y="351.5" >schedu..</text>
</g>
<g >
<title>[kube-apiserver] (54 samples, 93.10%)</title><rect x="30.3" y="581" width="1098.7" height="15.0" fill="rgb(240,102,51)" rx="2" ry="2" />
<text  x="33.34" y="591.5" >[kube-apiserver]</text>
</g>
<g >
<title>__schedule (1 samples, 1.72%)</title><rect x="1169.7" y="309" width="20.3" height="15.0" fill="rgb(209,90,19)" rx="2" ry="2" />
<text  x="1172.66" y="319.5" ></text>
</g>
<g >
<title>[kube-apiserver] (1 samples, 1.72%)</title><rect x="1129.0" y="485" width="20.3" height="15.0" fill="rgb(219,108,50)" rx="2" ry="2" />
<text  x="1131.97" y="495.5" ></text>
</g>
<g >
<title>futex_wait (1 samples, 1.72%)</title><rect x="1149.3" y="405" width="20.4" height="15.0" fill="rgb(222,105,28)" rx="2" ry="2" />
<text  x="1152.31" y="415.5" ></text>
</g>
<g >
<title>x64_sys_call (10 samples, 17.24%)</title><rect x="823.8" y="405" width="203.4" height="15.0" fill="rgb(232,150,41)" rx="2" ry="2" />
<text  x="826.79" y="415.5" >x64_sys_call</text>
</g>
<g >
<title>futex_wait (1 samples, 1.72%)</title><rect x="1169.7" y="373" width="20.3" height="15.0" fill="rgb(246,120,26)" rx="2" ry="2" />
<text  x="1172.66" y="383.5" ></text>
</g>
<g >
<title>[kube-apiserver] (1 samples, 1.72%)</title><rect x="1149.3" y="533" width="20.4" height="15.0" fill="rgb(207,89,29)" rx="2" ry="2" />
<text  x="1152.31" y="543.5" ></text>
</g>
<g >
<title>do_syscall_64 (2 samples, 3.45%)</title><rect x="783.1" y="405" width="40.7" height="15.0" fill="rgb(245,164,14)" rx="2" ry="2" />
<text  x="786.10" y="415.5" >do_..</text>
</g>
<g >
<title>__x64_sys_futex (2 samples, 3.45%)</title><rect x="925.5" y="389" width="40.7" height="15.0" fill="rgb(245,112,48)" rx="2" ry="2" />
<text  x="928.52" y="399.5" >__x..</text>
</g>
<g >
<title>entry_SYSCALL_64_after_hwframe (1 samples, 1.72%)</title><rect x="1149.3" y="485" width="20.4" height="15.0" fill="rgb(230,203,32)" rx="2" ry="2" />
<text  x="1152.31" y="495.5" ></text>
</g>
<g >
<title>[unknown] (2 samples, 3.45%)</title><rect x="1149.3" y="613" width="40.7" height="15.0" fill="rgb(221,104,10)" rx="2" ry="2" />
<text  x="1152.31" y="623.5" >[un..</text>
</g>
<g >
<title>[kube-apiserver] (1 samples, 1.72%)</title><rect x="1149.3" y="597" width="20.4" height="15.0" fill="rgb(234,169,46)" rx="2" ry="2" />
<text  x="1152.31" y="607.5" ></text>
</g>
<g >
<title>futex_wait_queue (1 samples, 1.72%)</title><rect x="1149.3" y="373" width="20.4" height="15.0" fill="rgb(254,195,18)" rx="2" ry="2" />
<text  x="1152.31" y="383.5" ></text>
</g>
<g >
<title>[kube-apiserver] (1 samples, 1.72%)</title><rect x="742.4" y="165" width="20.4" height="15.0" fill="rgb(249,31,49)" rx="2" ry="2" />
<text  x="745.41" y="175.5" ></text>
</g>
<g >
<title>[kube-apiserver] (6 samples, 10.34%)</title><rect x="661.0" y="389" width="122.1" height="15.0" fill="rgb(206,117,30)" rx="2" ry="2" />
<text  x="664.03" y="399.5" >[kube-apiserver]</text>
</g>
<g >
<title>[kube-apiserver] (1 samples, 1.72%)</title><rect x="1129.0" y="565" width="20.3" height="15.0" fill="rgb(212,43,5)" rx="2" ry="2" />
<text  x="1131.97" y="575.5" ></text>
</g>
<g >
<title>finish_task_switch.isra.0 (2 samples, 3.45%)</title><rect x="1027.2" y="277" width="40.7" height="15.0" fill="rgb(222,182,10)" rx="2" ry="2" />
<text  x="1030.24" y="287.5" >fin..</text>
</g>
<g >
<title>[kube-apiserver] (55 samples, 94.83%)</title><rect x="10.0" y="629" width="1119.0" height="15.0" fill="rgb(222,172,11)" rx="2" ry="2" />
<text  x="13.00" y="639.5" >[kube-apiserver]</text>
</g>
<g >
<title>schedule_hrtimeout_range_clock (3 samples, 5.17%)</title><rect x="1027.2" y="325" width="61.1" height="15.0" fill="rgb(241,211,11)" rx="2" ry="2" />
<text  x="1030.24" y="335.5" >schedu..</text>
</g>
<g >
<title>__x64_sys_write (1 samples, 1.72%)</title><rect x="1088.3" y="405" width="20.3" height="15.0" fill="rgb(224,159,21)" rx="2" ry="2" />
<text  x="1091.28" y="415.5" ></text>
</g>
</g>
</svg>
